<mxfile host="app.diagrams.net" agent="Mozilla/5.0 (X11; Linux x86_64; rv:139.0) Gecko/20100101 Firefox/139.0" version="27.1.4">
  <diagram name="Page-1" id="9f46799a-70d6-7492-0946-bef42562c5a5">
    <mxGraphModel dx="1388" dy="803" grid="1" gridSize="10" guides="1" tooltips="1" connect="1" arrows="1" fold="1" page="1" pageScale="1" pageWidth="1100" pageHeight="850" background="none" math="0" shadow="0">
      <root>
        <mxCell id="0" />
        <mxCell id="1" parent="0" />
        <mxCell id="tn0CUvHOOgBlPI2HyM90-2" value="&lt;i&gt;EntityBase&lt;/i&gt;" style="swimlane;fontStyle=1;align=center;verticalAlign=top;childLayout=stackLayout;horizontal=1;startSize=26;horizontalStack=0;resizeParent=1;resizeParentMax=0;resizeLast=0;collapsible=1;marginBottom=0;whiteSpace=wrap;html=1;" parent="1" vertex="1">
          <mxGeometry x="10" width="320" height="240" as="geometry">
            <mxRectangle x="360" y="150" width="100" height="30" as="alternateBounds" />
          </mxGeometry>
        </mxCell>
        <mxCell id="tn0CUvHOOgBlPI2HyM90-3" value="&lt;div&gt;- boundingBox: BoundingBox&lt;/div&gt;&lt;div&gt;- position : Vec2&lt;/div&gt;&lt;div&gt;- velocity : Vec2&lt;/div&gt;&lt;div&gt;+ currentHealth:int&lt;/div&gt;&lt;div&gt;+maHealt:int&lt;/div&gt;" style="text;strokeColor=none;fillColor=none;align=left;verticalAlign=top;spacingLeft=4;spacingRight=4;overflow=hidden;rotatable=0;points=[[0,0.5],[1,0.5]];portConstraint=eastwest;whiteSpace=wrap;html=1;" parent="tn0CUvHOOgBlPI2HyM90-2" vertex="1">
          <mxGeometry y="26" width="320" height="84" as="geometry" />
        </mxCell>
        <mxCell id="tn0CUvHOOgBlPI2HyM90-4" value="" style="line;strokeWidth=1;fillColor=none;align=left;verticalAlign=middle;spacingTop=-1;spacingLeft=3;spacingRight=3;rotatable=0;labelPosition=right;points=[];portConstraint=eastwest;strokeColor=inherit;" parent="tn0CUvHOOgBlPI2HyM90-2" vertex="1">
          <mxGeometry y="110" width="320" height="8" as="geometry" />
        </mxCell>
        <mxCell id="tn0CUvHOOgBlPI2HyM90-5" value="&lt;div&gt;+getVelocity():Vec2&lt;/div&gt;&lt;div&gt;+update(time: GameTime):void&lt;/div&gt;&lt;div&gt;+Draw(spriteBatch :SpriteBatch)&lt;/div&gt;&lt;div&gt;+CollidesWith(other:EntityBase)&lt;/div&gt;&lt;div&gt;+FindAllColliding(others:List)&lt;/div&gt;&lt;div&gt;+FindClosestFromPoint(others,target:Point,range:float)&lt;/div&gt;&lt;div&gt;&lt;i&gt;+Hit(offender : EntityBase)&lt;/i&gt;&lt;/div&gt;" style="text;strokeColor=none;fillColor=none;align=left;verticalAlign=top;spacingLeft=4;spacingRight=4;overflow=hidden;rotatable=0;points=[[0,0.5],[1,0.5]];portConstraint=eastwest;whiteSpace=wrap;html=1;" parent="tn0CUvHOOgBlPI2HyM90-2" vertex="1">
          <mxGeometry y="118" width="320" height="122" as="geometry" />
        </mxCell>
        <mxCell id="tn0CUvHOOgBlPI2HyM90-6" value="Projectile" style="swimlane;fontStyle=1;align=center;verticalAlign=top;childLayout=stackLayout;horizontal=1;startSize=26;horizontalStack=0;resizeParent=1;resizeParentMax=0;resizeLast=0;collapsible=1;marginBottom=0;whiteSpace=wrap;html=1;" parent="1" vertex="1">
          <mxGeometry x="350" y="320" width="240" height="462" as="geometry" />
        </mxCell>
        <mxCell id="tn0CUvHOOgBlPI2HyM90-7" value="&lt;div&gt;maxSpeed : float&lt;/div&gt;&lt;div&gt;maxAcceleration : float&lt;/div&gt;&lt;div&gt;friction : float&lt;/div&gt;&lt;div&gt;size : int&lt;/div&gt;&lt;div&gt;damage : int&lt;/div&gt;&lt;div&gt;direct : Func(Projectile)-&amp;gt;Vec2&lt;/div&gt;&lt;div&gt;onDeath : Action&lt;/div&gt;&lt;div&gt;onHit : Action&lt;/div&gt;&lt;div&gt;onUpdate : Action&lt;/div&gt;&lt;div&gt;onFire : Action&lt;/div&gt;&lt;div&gt;impactResistance : int&lt;/div&gt;&lt;div&gt;deathTime : Timepoint&lt;/div&gt;&lt;div&gt;texture : Texture2D&lt;/div&gt;&lt;div&gt;color : Color&lt;/div&gt;" style="text;strokeColor=none;fillColor=none;align=left;verticalAlign=top;spacingLeft=4;spacingRight=4;overflow=hidden;rotatable=0;points=[[0,0.5],[1,0.5]];portConstraint=eastwest;whiteSpace=wrap;html=1;" parent="tn0CUvHOOgBlPI2HyM90-6" vertex="1">
          <mxGeometry y="26" width="240" height="214" as="geometry" />
        </mxCell>
        <mxCell id="tn0CUvHOOgBlPI2HyM90-10" value="&lt;div&gt;Builder&lt;/div&gt;" style="swimlane;fontStyle=1;align=center;verticalAlign=top;childLayout=stackLayout;horizontal=1;startSize=26;horizontalStack=0;resizeParent=1;resizeParentMax=0;resizeLast=0;collapsible=1;marginBottom=0;whiteSpace=wrap;html=1;" parent="tn0CUvHOOgBlPI2HyM90-6" vertex="1">
          <mxGeometry y="240" width="240" height="130" as="geometry" />
        </mxCell>
        <mxCell id="tn0CUvHOOgBlPI2HyM90-11" value="&lt;div&gt;maxSpeed, max Acceleration ... ...&lt;/div&gt;&lt;div&gt;&lt;br&gt;&lt;/div&gt;" style="text;strokeColor=none;fillColor=none;align=left;verticalAlign=top;spacingLeft=4;spacingRight=4;overflow=hidden;rotatable=0;points=[[0,0.5],[1,0.5]];portConstraint=eastwest;whiteSpace=wrap;html=1;" parent="tn0CUvHOOgBlPI2HyM90-10" vertex="1">
          <mxGeometry y="26" width="240" height="26" as="geometry" />
        </mxCell>
        <mxCell id="tn0CUvHOOgBlPI2HyM90-12" value="" style="line;strokeWidth=1;fillColor=none;align=left;verticalAlign=middle;spacingTop=-1;spacingLeft=3;spacingRight=3;rotatable=0;labelPosition=right;points=[];portConstraint=eastwest;strokeColor=inherit;" parent="tn0CUvHOOgBlPI2HyM90-10" vertex="1">
          <mxGeometry y="52" width="240" height="8" as="geometry" />
        </mxCell>
        <mxCell id="tn0CUvHOOgBlPI2HyM90-13" value="&lt;div&gt;+ setMaxSpeed(value : float) : Builder&lt;/div&gt;&lt;div&gt;+ set[everything](value):Builder&lt;/div&gt;&lt;div&gt;+ build():Projectile&lt;/div&gt;&lt;div&gt;+ clone():Builder&lt;/div&gt;" style="text;strokeColor=none;fillColor=none;align=left;verticalAlign=top;spacingLeft=4;spacingRight=4;overflow=hidden;rotatable=0;points=[[0,0.5],[1,0.5]];portConstraint=eastwest;whiteSpace=wrap;html=1;" parent="tn0CUvHOOgBlPI2HyM90-10" vertex="1">
          <mxGeometry y="60" width="240" height="70" as="geometry" />
        </mxCell>
        <mxCell id="tn0CUvHOOgBlPI2HyM90-8" value="" style="line;strokeWidth=1;fillColor=none;align=left;verticalAlign=middle;spacingTop=-1;spacingLeft=3;spacingRight=3;rotatable=0;labelPosition=right;points=[];portConstraint=eastwest;strokeColor=inherit;" parent="tn0CUvHOOgBlPI2HyM90-6" vertex="1">
          <mxGeometry y="370" width="240" height="8" as="geometry" />
        </mxCell>
        <mxCell id="tn0CUvHOOgBlPI2HyM90-9" value="&lt;div&gt;+update(gametime : GameTime):void&lt;/div&gt;&lt;div&gt;+Draw(spriteBatch SpriteBatch)&lt;/div&gt;&lt;div&gt;-Die():void&lt;/div&gt;&lt;div&gt;+Hit(offender : EntityBase):void&lt;/div&gt;" style="text;strokeColor=none;fillColor=none;align=left;verticalAlign=top;spacingLeft=4;spacingRight=4;overflow=hidden;rotatable=0;points=[[0,0.5],[1,0.5]];portConstraint=eastwest;whiteSpace=wrap;html=1;" parent="tn0CUvHOOgBlPI2HyM90-6" vertex="1">
          <mxGeometry y="378" width="240" height="84" as="geometry" />
        </mxCell>
        <mxCell id="tn0CUvHOOgBlPI2HyM90-14" value="Extends" style="endArrow=block;endSize=16;endFill=0;html=1;rounded=0;fontSize=12;curved=1;exitX=0.5;exitY=0;exitDx=0;exitDy=0;entryX=0.504;entryY=0.997;entryDx=0;entryDy=0;entryPerimeter=0;" parent="1" source="tn0CUvHOOgBlPI2HyM90-6" target="tn0CUvHOOgBlPI2HyM90-5" edge="1">
          <mxGeometry width="160" relative="1" as="geometry">
            <mxPoint x="150" y="30" as="sourcePoint" />
            <mxPoint x="310" y="30" as="targetPoint" />
            <Array as="points">
              <mxPoint x="480" y="280" />
              <mxPoint x="170" y="300" />
            </Array>
          </mxGeometry>
        </mxCell>
        <mxCell id="tn0CUvHOOgBlPI2HyM90-16" style="edgeStyle=none;curved=1;rounded=0;orthogonalLoop=1;jettySize=auto;html=1;exitX=0;exitY=0.5;exitDx=0;exitDy=0;entryX=0.296;entryY=0.997;entryDx=0;entryDy=0;entryPerimeter=0;fontSize=12;startSize=8;endSize=8;" parent="1" source="tn0CUvHOOgBlPI2HyM90-7" target="tn0CUvHOOgBlPI2HyM90-5" edge="1">
          <mxGeometry relative="1" as="geometry">
            <Array as="points">
              <mxPoint x="100" y="480" />
            </Array>
          </mxGeometry>
        </mxCell>
        <mxCell id="tn0CUvHOOgBlPI2HyM90-18" style="edgeStyle=none;curved=1;rounded=0;orthogonalLoop=1;jettySize=auto;html=1;exitX=-0.002;exitY=0.822;exitDx=0;exitDy=0;entryX=0.111;entryY=1.009;entryDx=0;entryDy=0;entryPerimeter=0;fontSize=12;startSize=8;endSize=8;exitPerimeter=0;" parent="1" source="tn0CUvHOOgBlPI2HyM90-7" target="tn0CUvHOOgBlPI2HyM90-5" edge="1">
          <mxGeometry relative="1" as="geometry">
            <mxPoint x="385" y="603" as="sourcePoint" />
            <mxPoint x="140" y="390" as="targetPoint" />
            <Array as="points">
              <mxPoint x="30" y="550" />
            </Array>
          </mxGeometry>
        </mxCell>
        <mxCell id="tn0CUvHOOgBlPI2HyM90-19" value="Owner" style="text;html=1;align=center;verticalAlign=middle;whiteSpace=wrap;rounded=0;" parent="1" vertex="1">
          <mxGeometry x="150" y="385" width="60" height="30" as="geometry" />
        </mxCell>
        <mxCell id="tn0CUvHOOgBlPI2HyM90-20" value="Target" style="text;html=1;align=center;verticalAlign=middle;whiteSpace=wrap;rounded=0;" parent="1" vertex="1">
          <mxGeometry x="110" y="450" width="60" height="30" as="geometry" />
        </mxCell>
        <mxCell id="tn0CUvHOOgBlPI2HyM90-21" value="0..1" style="text;html=1;align=center;verticalAlign=middle;whiteSpace=wrap;rounded=0;" parent="1" vertex="1">
          <mxGeometry y="240" width="60" height="30" as="geometry" />
        </mxCell>
        <mxCell id="tn0CUvHOOgBlPI2HyM90-22" value="0..1" style="text;html=1;align=center;verticalAlign=middle;whiteSpace=wrap;rounded=0;" parent="1" vertex="1">
          <mxGeometry x="60" y="240" width="60" height="30" as="geometry" />
        </mxCell>
        <mxCell id="tn0CUvHOOgBlPI2HyM90-23" value="ProjectileSystem" style="swimlane;fontStyle=1;align=center;verticalAlign=top;childLayout=stackLayout;horizontal=1;startSize=26;horizontalStack=0;resizeParent=1;resizeParentMax=0;resizeLast=0;collapsible=1;marginBottom=0;whiteSpace=wrap;html=1;" parent="1" vertex="1">
          <mxGeometry x="390" y="10" width="200" height="170" as="geometry" />
        </mxCell>
        <mxCell id="tn0CUvHOOgBlPI2HyM90-24" value="&lt;div&gt;&lt;u&gt;+ Instance: ProjectileSystem&lt;/u&gt;&lt;/div&gt;" style="text;strokeColor=none;fillColor=none;align=left;verticalAlign=top;spacingLeft=4;spacingRight=4;overflow=hidden;rotatable=0;points=[[0,0.5],[1,0.5]];portConstraint=eastwest;whiteSpace=wrap;html=1;" parent="tn0CUvHOOgBlPI2HyM90-23" vertex="1">
          <mxGeometry y="26" width="200" height="34" as="geometry" />
        </mxCell>
        <mxCell id="tn0CUvHOOgBlPI2HyM90-25" value="" style="line;strokeWidth=1;fillColor=none;align=left;verticalAlign=middle;spacingTop=-1;spacingLeft=3;spacingRight=3;rotatable=0;labelPosition=right;points=[];portConstraint=eastwest;strokeColor=inherit;" parent="tn0CUvHOOgBlPI2HyM90-23" vertex="1">
          <mxGeometry y="60" width="200" height="8" as="geometry" />
        </mxCell>
        <mxCell id="tn0CUvHOOgBlPI2HyM90-26" value="&lt;div&gt;&lt;u&gt;+initialize():void&lt;br&gt;&lt;/u&gt;&lt;/div&gt;&lt;div&gt;+add(proj:Projectile):void&lt;/div&gt;&lt;div&gt;+remove(p:Projectile)&lt;/div&gt;&lt;div&gt;+update(gameTime:GameTime):void&lt;/div&gt;&lt;div&gt;+Draw(sb:SpriteBatch):void&lt;/div&gt;&lt;div&gt;+getProjectiles():List of Projectiles&lt;/div&gt;" style="text;strokeColor=none;fillColor=none;align=left;verticalAlign=top;spacingLeft=4;spacingRight=4;overflow=hidden;rotatable=0;points=[[0,0.5],[1,0.5]];portConstraint=eastwest;whiteSpace=wrap;html=1;" parent="tn0CUvHOOgBlPI2HyM90-23" vertex="1">
          <mxGeometry y="68" width="200" height="102" as="geometry" />
        </mxCell>
        <mxCell id="tn0CUvHOOgBlPI2HyM90-27" value="" style="endArrow=diamondThin;endFill=1;endSize=24;html=1;rounded=0;fontSize=12;curved=1;entryX=0.849;entryY=0.986;entryDx=0;entryDy=0;entryPerimeter=0;exitX=0.874;exitY=0;exitDx=0;exitDy=0;exitPerimeter=0;" parent="1" source="tn0CUvHOOgBlPI2HyM90-6" target="tn0CUvHOOgBlPI2HyM90-26" edge="1">
          <mxGeometry width="160" relative="1" as="geometry">
            <mxPoint x="430" y="150" as="sourcePoint" />
            <mxPoint x="590" y="150" as="targetPoint" />
          </mxGeometry>
        </mxCell>
        <mxCell id="tn0CUvHOOgBlPI2HyM90-28" value="*" style="text;html=1;align=center;verticalAlign=middle;whiteSpace=wrap;rounded=0;" parent="1" vertex="1">
          <mxGeometry x="540" y="290" width="60" height="30" as="geometry" />
        </mxCell>
        <mxCell id="tn0CUvHOOgBlPI2HyM90-29" value="manages V" style="text;html=1;align=center;verticalAlign=middle;whiteSpace=wrap;rounded=0;" parent="1" vertex="1">
          <mxGeometry x="560" y="240" width="60" height="30" as="geometry" />
        </mxCell>
        <mxCell id="tn0CUvHOOgBlPI2HyM90-35" value="&lt;div&gt;&lt;i&gt;IProjectileDirector&lt;/i&gt;&lt;/div&gt;" style="swimlane;fontStyle=0;childLayout=stackLayout;horizontal=1;startSize=26;fillColor=none;horizontalStack=0;resizeParent=1;resizeParentMax=0;resizeLast=0;collapsible=1;marginBottom=0;whiteSpace=wrap;html=1;" parent="1" vertex="1">
          <mxGeometry x="1180" y="50" width="290" height="60" as="geometry" />
        </mxCell>
        <mxCell id="tn0CUvHOOgBlPI2HyM90-36" value="apply(builder: Projectile.Builder):Projectile.Builder" style="text;strokeColor=none;fillColor=none;align=left;verticalAlign=top;spacingLeft=4;spacingRight=4;overflow=hidden;rotatable=0;points=[[0,0.5],[1,0.5]];portConstraint=eastwest;whiteSpace=wrap;html=1;" parent="tn0CUvHOOgBlPI2HyM90-35" vertex="1">
          <mxGeometry y="26" width="290" height="34" as="geometry" />
        </mxCell>
        <mxCell id="tn0CUvHOOgBlPI2HyM90-40" value="Homing" style="swimlane;fontStyle=0;childLayout=stackLayout;horizontal=1;startSize=26;fillColor=none;horizontalStack=0;resizeParent=1;resizeParentMax=0;resizeLast=0;collapsible=1;marginBottom=0;whiteSpace=wrap;html=1;" parent="1" vertex="1">
          <mxGeometry x="760" y="160" width="140" height="52" as="geometry" />
        </mxCell>
        <mxCell id="tn0CUvHOOgBlPI2HyM90-41" value="+apply(builder):builder" style="text;strokeColor=none;fillColor=none;align=left;verticalAlign=top;spacingLeft=4;spacingRight=4;overflow=hidden;rotatable=0;points=[[0,0.5],[1,0.5]];portConstraint=eastwest;whiteSpace=wrap;html=1;" parent="tn0CUvHOOgBlPI2HyM90-40" vertex="1">
          <mxGeometry y="26" width="140" height="26" as="geometry" />
        </mxCell>
        <mxCell id="tn0CUvHOOgBlPI2HyM90-44" value="Arrow" style="swimlane;fontStyle=0;childLayout=stackLayout;horizontal=1;startSize=26;fillColor=none;horizontalStack=0;resizeParent=1;resizeParentMax=0;resizeLast=0;collapsible=1;marginBottom=0;whiteSpace=wrap;html=1;" parent="1" vertex="1">
          <mxGeometry x="920" y="160" width="140" height="52" as="geometry" />
        </mxCell>
        <mxCell id="tn0CUvHOOgBlPI2HyM90-45" value="+apply(builder):builder" style="text;strokeColor=none;fillColor=none;align=left;verticalAlign=top;spacingLeft=4;spacingRight=4;overflow=hidden;rotatable=0;points=[[0,0.5],[1,0.5]];portConstraint=eastwest;whiteSpace=wrap;html=1;" parent="tn0CUvHOOgBlPI2HyM90-44" vertex="1">
          <mxGeometry y="26" width="140" height="26" as="geometry" />
        </mxCell>
        <mxCell id="tn0CUvHOOgBlPI2HyM90-46" value="ConservativeHoming" style="swimlane;fontStyle=0;childLayout=stackLayout;horizontal=1;startSize=26;fillColor=none;horizontalStack=0;resizeParent=1;resizeParentMax=0;resizeLast=0;collapsible=1;marginBottom=0;whiteSpace=wrap;html=1;" parent="1" vertex="1">
          <mxGeometry x="1080" y="160" width="140" height="52" as="geometry" />
        </mxCell>
        <mxCell id="tn0CUvHOOgBlPI2HyM90-47" value="+apply(builder):builder" style="text;strokeColor=none;fillColor=none;align=left;verticalAlign=top;spacingLeft=4;spacingRight=4;overflow=hidden;rotatable=0;points=[[0,0.5],[1,0.5]];portConstraint=eastwest;whiteSpace=wrap;html=1;" parent="tn0CUvHOOgBlPI2HyM90-46" vertex="1">
          <mxGeometry y="26" width="140" height="26" as="geometry" />
        </mxCell>
        <mxCell id="tn0CUvHOOgBlPI2HyM90-48" value="Explosive" style="swimlane;fontStyle=0;childLayout=stackLayout;horizontal=1;startSize=26;fillColor=none;horizontalStack=0;resizeParent=1;resizeParentMax=0;resizeLast=0;collapsible=1;marginBottom=0;whiteSpace=wrap;html=1;" parent="1" vertex="1">
          <mxGeometry x="1400" y="160" width="140" height="52" as="geometry" />
        </mxCell>
        <mxCell id="tn0CUvHOOgBlPI2HyM90-49" value="+apply(builder):builder" style="text;strokeColor=none;fillColor=none;align=left;verticalAlign=top;spacingLeft=4;spacingRight=4;overflow=hidden;rotatable=0;points=[[0,0.5],[1,0.5]];portConstraint=eastwest;whiteSpace=wrap;html=1;" parent="tn0CUvHOOgBlPI2HyM90-48" vertex="1">
          <mxGeometry y="26" width="140" height="26" as="geometry" />
        </mxCell>
        <mxCell id="tn0CUvHOOgBlPI2HyM90-50" value="DangerZone" style="swimlane;fontStyle=0;childLayout=stackLayout;horizontal=1;startSize=26;fillColor=none;horizontalStack=0;resizeParent=1;resizeParentMax=0;resizeLast=0;collapsible=1;marginBottom=0;whiteSpace=wrap;html=1;" parent="1" vertex="1">
          <mxGeometry x="1240" y="160" width="140" height="52" as="geometry" />
        </mxCell>
        <mxCell id="tn0CUvHOOgBlPI2HyM90-51" value="+apply(builder):builder" style="text;strokeColor=none;fillColor=none;align=left;verticalAlign=top;spacingLeft=4;spacingRight=4;overflow=hidden;rotatable=0;points=[[0,0.5],[1,0.5]];portConstraint=eastwest;whiteSpace=wrap;html=1;" parent="tn0CUvHOOgBlPI2HyM90-50" vertex="1">
          <mxGeometry y="26" width="140" height="26" as="geometry" />
        </mxCell>
        <mxCell id="tn0CUvHOOgBlPI2HyM90-52" value="MoveToCaster" style="swimlane;fontStyle=0;childLayout=stackLayout;horizontal=1;startSize=26;fillColor=none;horizontalStack=0;resizeParent=1;resizeParentMax=0;resizeLast=0;collapsible=1;marginBottom=0;whiteSpace=wrap;html=1;" parent="1" vertex="1">
          <mxGeometry x="1560" y="160" width="140" height="52" as="geometry" />
        </mxCell>
        <mxCell id="tn0CUvHOOgBlPI2HyM90-53" value="+apply(builder):builder" style="text;strokeColor=none;fillColor=none;align=left;verticalAlign=top;spacingLeft=4;spacingRight=4;overflow=hidden;rotatable=0;points=[[0,0.5],[1,0.5]];portConstraint=eastwest;whiteSpace=wrap;html=1;" parent="tn0CUvHOOgBlPI2HyM90-52" vertex="1">
          <mxGeometry y="26" width="140" height="26" as="geometry" />
        </mxCell>
        <mxCell id="tn0CUvHOOgBlPI2HyM90-54" value="&lt;div&gt;ParticleEffect&lt;/div&gt;" style="swimlane;fontStyle=0;childLayout=stackLayout;horizontal=1;startSize=26;fillColor=none;horizontalStack=0;resizeParent=1;resizeParentMax=0;resizeLast=0;collapsible=1;marginBottom=0;whiteSpace=wrap;html=1;" parent="1" vertex="1">
          <mxGeometry x="1720" y="160" width="140" height="52" as="geometry" />
        </mxCell>
        <mxCell id="tn0CUvHOOgBlPI2HyM90-55" value="+apply(builder):builder" style="text;strokeColor=none;fillColor=none;align=left;verticalAlign=top;spacingLeft=4;spacingRight=4;overflow=hidden;rotatable=0;points=[[0,0.5],[1,0.5]];portConstraint=eastwest;whiteSpace=wrap;html=1;" parent="tn0CUvHOOgBlPI2HyM90-54" vertex="1">
          <mxGeometry y="26" width="140" height="26" as="geometry" />
        </mxCell>
        <mxCell id="tn0CUvHOOgBlPI2HyM90-58" value="" style="endArrow=block;dashed=1;endFill=0;endSize=12;html=1;rounded=0;fontSize=12;curved=1;exitX=0.75;exitY=0;exitDx=0;exitDy=0;entryX=0;entryY=0.5;entryDx=0;entryDy=0;" parent="1" source="tn0CUvHOOgBlPI2HyM90-40" target="tn0CUvHOOgBlPI2HyM90-36" edge="1">
          <mxGeometry width="160" relative="1" as="geometry">
            <mxPoint x="1050" y="330" as="sourcePoint" />
            <mxPoint x="1210" y="330" as="targetPoint" />
          </mxGeometry>
        </mxCell>
        <mxCell id="tn0CUvHOOgBlPI2HyM90-63" value="" style="endArrow=block;dashed=1;endFill=0;endSize=12;html=1;rounded=0;fontSize=12;curved=1;entryX=1.005;entryY=0.151;entryDx=0;entryDy=0;entryPerimeter=0;" parent="1" target="tn0CUvHOOgBlPI2HyM90-36" edge="1">
          <mxGeometry width="160" relative="1" as="geometry">
            <mxPoint x="1760" y="160" as="sourcePoint" />
            <mxPoint x="1060" y="290" as="targetPoint" />
          </mxGeometry>
        </mxCell>
        <mxCell id="tn0CUvHOOgBlPI2HyM90-64" value="" style="endArrow=block;dashed=1;endFill=0;endSize=12;html=1;rounded=0;fontSize=12;curved=1;entryX=0.99;entryY=0.714;entryDx=0;entryDy=0;exitX=0.329;exitY=0;exitDx=0;exitDy=0;exitPerimeter=0;entryPerimeter=0;" parent="1" source="tn0CUvHOOgBlPI2HyM90-52" target="tn0CUvHOOgBlPI2HyM90-36" edge="1">
          <mxGeometry width="160" relative="1" as="geometry">
            <mxPoint x="900" y="290" as="sourcePoint" />
            <mxPoint x="1060" y="290" as="targetPoint" />
          </mxGeometry>
        </mxCell>
        <mxCell id="tn0CUvHOOgBlPI2HyM90-65" value="" style="endArrow=block;dashed=1;endFill=0;endSize=12;html=1;rounded=0;fontSize=12;curved=1;exitX=0.25;exitY=0;exitDx=0;exitDy=0;entryX=0.83;entryY=1.018;entryDx=0;entryDy=0;entryPerimeter=0;" parent="1" source="tn0CUvHOOgBlPI2HyM90-48" target="tn0CUvHOOgBlPI2HyM90-36" edge="1">
          <mxGeometry width="160" relative="1" as="geometry">
            <mxPoint x="900" y="290" as="sourcePoint" />
            <mxPoint x="1300" y="100" as="targetPoint" />
          </mxGeometry>
        </mxCell>
        <mxCell id="tn0CUvHOOgBlPI2HyM90-66" value="" style="endArrow=block;dashed=1;endFill=0;endSize=12;html=1;rounded=0;fontSize=12;curved=1;entryX=0.771;entryY=0.936;entryDx=0;entryDy=0;entryPerimeter=0;" parent="1" source="tn0CUvHOOgBlPI2HyM90-50" target="tn0CUvHOOgBlPI2HyM90-36" edge="1">
          <mxGeometry width="160" relative="1" as="geometry">
            <mxPoint x="900" y="290" as="sourcePoint" />
            <mxPoint x="1060" y="290" as="targetPoint" />
          </mxGeometry>
        </mxCell>
        <mxCell id="tn0CUvHOOgBlPI2HyM90-67" value="" style="endArrow=block;dashed=1;endFill=0;endSize=12;html=1;rounded=0;fontSize=12;curved=1;" parent="1" source="tn0CUvHOOgBlPI2HyM90-46" target="tn0CUvHOOgBlPI2HyM90-36" edge="1">
          <mxGeometry width="160" relative="1" as="geometry">
            <mxPoint x="900" y="290" as="sourcePoint" />
            <mxPoint x="1060" y="290" as="targetPoint" />
          </mxGeometry>
        </mxCell>
        <mxCell id="tn0CUvHOOgBlPI2HyM90-68" value="" style="endArrow=block;dashed=1;endFill=0;endSize=12;html=1;rounded=0;fontSize=12;curved=1;entryX=0.171;entryY=1.13;entryDx=0;entryDy=0;entryPerimeter=0;" parent="1" source="tn0CUvHOOgBlPI2HyM90-44" target="tn0CUvHOOgBlPI2HyM90-36" edge="1">
          <mxGeometry width="160" relative="1" as="geometry">
            <mxPoint x="900" y="290" as="sourcePoint" />
            <mxPoint x="1060" y="290" as="targetPoint" />
          </mxGeometry>
        </mxCell>
        <mxCell id="tn0CUvHOOgBlPI2HyM90-73" value="FireEffect" style="swimlane;fontStyle=0;childLayout=stackLayout;horizontal=1;startSize=26;fillColor=none;horizontalStack=0;resizeParent=1;resizeParentMax=0;resizeLast=0;collapsible=1;marginBottom=0;whiteSpace=wrap;html=1;" parent="1" vertex="1">
          <mxGeometry x="1560" y="280" width="140" height="52" as="geometry" />
        </mxCell>
        <mxCell id="tn0CUvHOOgBlPI2HyM90-74" value="+apply(builder):builder" style="text;strokeColor=none;fillColor=none;align=left;verticalAlign=top;spacingLeft=4;spacingRight=4;overflow=hidden;rotatable=0;points=[[0,0.5],[1,0.5]];portConstraint=eastwest;whiteSpace=wrap;html=1;" parent="tn0CUvHOOgBlPI2HyM90-73" vertex="1">
          <mxGeometry y="26" width="140" height="26" as="geometry" />
        </mxCell>
        <mxCell id="tn0CUvHOOgBlPI2HyM90-75" value="&lt;div&gt;HitEffect&lt;/div&gt;" style="swimlane;fontStyle=0;childLayout=stackLayout;horizontal=1;startSize=26;fillColor=none;horizontalStack=0;resizeParent=1;resizeParentMax=0;resizeLast=0;collapsible=1;marginBottom=0;whiteSpace=wrap;html=1;" parent="1" vertex="1">
          <mxGeometry x="1720" y="280" width="140" height="52" as="geometry" />
        </mxCell>
        <mxCell id="tn0CUvHOOgBlPI2HyM90-76" value="+apply(builder):builder" style="text;strokeColor=none;fillColor=none;align=left;verticalAlign=top;spacingLeft=4;spacingRight=4;overflow=hidden;rotatable=0;points=[[0,0.5],[1,0.5]];portConstraint=eastwest;whiteSpace=wrap;html=1;" parent="tn0CUvHOOgBlPI2HyM90-75" vertex="1">
          <mxGeometry y="26" width="140" height="26" as="geometry" />
        </mxCell>
        <mxCell id="tn0CUvHOOgBlPI2HyM90-77" value="&lt;div&gt;TrailEffect&lt;/div&gt;" style="swimlane;fontStyle=0;childLayout=stackLayout;horizontal=1;startSize=26;fillColor=none;horizontalStack=0;resizeParent=1;resizeParentMax=0;resizeLast=0;collapsible=1;marginBottom=0;whiteSpace=wrap;html=1;" parent="1" vertex="1">
          <mxGeometry x="1880" y="280" width="140" height="52" as="geometry" />
        </mxCell>
        <mxCell id="tn0CUvHOOgBlPI2HyM90-78" value="+apply(builder):builder" style="text;strokeColor=none;fillColor=none;align=left;verticalAlign=top;spacingLeft=4;spacingRight=4;overflow=hidden;rotatable=0;points=[[0,0.5],[1,0.5]];portConstraint=eastwest;whiteSpace=wrap;html=1;" parent="tn0CUvHOOgBlPI2HyM90-77" vertex="1">
          <mxGeometry y="26" width="140" height="26" as="geometry" />
        </mxCell>
      </root>
    </mxGraphModel>
  </diagram>
</mxfile>
